HIERARCHY
ROOT root
{
	OFFSET	0	13.1	24.9
	CHANNELS 6  Xposition Yposition Zposition Xrotation Yrotation Zrotation
	JOINT spine_1
	{
		OFFSET	0	9.99999	0
		CHANNELS 3  Xrotation Yrotation Zrotation
		JOINT spine_2
		{
			OFFSET	0	112	-10
			CHANNELS 3  Xrotation Yrotation Zrotation
			JOINT spine_3
			{
				OFFSET	0	206.5	19.3
				CHANNELS 3  Xrotation Yrotation Zrotation
				JOINT spine_4
				{
					OFFSET	0	110.4	14.6
					CHANNELS 3  Xrotation Yrotation Zrotation
					JOINT neck_1
					{
						OFFSET	0	71.8	-50.3
						CHANNELS 3  Xrotation Yrotation Zrotation
						JOINT neck_2
						{
							OFFSET	0	86.2	-25.8
							CHANNELS 3  Xrotation Yrotation Zrotation
							JOINT head_ee
							{
								OFFSET	0	179.8	-8.7
								CHANNELS 3  Xrotation Yrotation Zrotation
								End Site
								{
									OFFSET	1	0	0
								}
							}
						}
					}
					JOINT left_clavicle
					{
						OFFSET	-43.2	22.4	-70.8
						CHANNELS 3  Xrotation Yrotation Zrotation
						JOINT left_shoulder
						{
							OFFSET	-93.9	-5.79999	48.7
							CHANNELS 3  Xrotation Yrotation Zrotation
							JOINT left_elbow
							{
								OFFSET	-291.4	-30.8	15.2
								CHANNELS 3  Xrotation Yrotation Zrotation
								JOINT left_lowarm_twist
								{
									OFFSET	-110.7	-3.89999	13.6
									CHANNELS 3  Xrotation Yrotation Zrotation
									JOINT left_hand
									{
										OFFSET	-110.7	-3.89999	13.6
										CHANNELS 3  Xrotation Yrotation Zrotation
										JOINT left_ee
										{
											OFFSET	-80.8	-5.10001	12.1
											CHANNELS 3  Xrotation Yrotation Zrotation
											End Site
											{
												OFFSET	1	0	0
											}
										}
									}
								}
							}
						}
					}
					JOINT right_clavicle
					{
						OFFSET	43.2	22.4	-70.8
						CHANNELS 3  Xrotation Yrotation Zrotation
						JOINT right_shoulder
						{
							OFFSET	93.9	-5.79999	48.7
							CHANNELS 3  Xrotation Yrotation Zrotation
							JOINT right_elbow
							{
								OFFSET	291.4	-30.8	15.2
								CHANNELS 3  Xrotation Yrotation Zrotation
								JOINT right_lowarm_twist
								{
									OFFSET	110.7	-3.89999	13.6
									CHANNELS 3  Xrotation Yrotation Zrotation
									JOINT right_hand
									{
										OFFSET	110.7	-3.89999	13.6
										CHANNELS 3  Xrotation Yrotation Zrotation
										JOINT right_ee
										{
											OFFSET	80.8	-5.10001	12.1
											CHANNELS 3  Xrotation Yrotation Zrotation
											End Site
											{
												OFFSET	1	0	0
											}
										}
									}
								}
							}
						}
					}
				}
			}
		}
	}
	JOINT left_hip
	{
		OFFSET	-82.8	-127.5	0.300001
		CHANNELS 3  Xrotation Yrotation Zrotation
		JOINT left_knee
		{
			OFFSET	-28.2	-396.7	2.2
			CHANNELS 3  Xrotation Yrotation Zrotation
			JOINT left_ankle
			{
				OFFSET	-11.7	-411.3	35.4
				CHANNELS 3  Xrotation Yrotation Zrotation
				JOINT left_toes
				{
					OFFSET	0	-60	-88.6
					CHANNELS 3  Xrotation Yrotation Zrotation
					JOINT left_foot_ee
					{
						OFFSET	-22.5	-16.5	-42.2
						CHANNELS 3  Xrotation Yrotation Zrotation
						End Site
						{
							OFFSET	1	0	0
						}
					}
				}
			}
		}
	}
	JOINT right_hip
	{
		OFFSET	82.8	-127.5	0.300001
		CHANNELS 3  Xrotation Yrotation Zrotation
		JOINT right_knee
		{
			OFFSET	28.2	-396.7	2.2
			CHANNELS 3  Xrotation Yrotation Zrotation
			JOINT right_ankle
			{
				OFFSET	11.7	-411.3	35.4
				CHANNELS 3  Xrotation Yrotation Zrotation
				JOINT right_toes
				{
					OFFSET	0	-60	-88.6
					CHANNELS 3  Xrotation Yrotation Zrotation
					JOINT right_foot_ee
					{
						OFFSET	22.5	-16.5	-42.2
						CHANNELS 3  Xrotation Yrotation Zrotation
						End Site
						{
							OFFSET	1	0	0
						}
					}
				}
			}
		}
	}
}
MOTION
Frames: 11
Frame Time: 0.02
3550.79 732.77 -668.608 -18.3117 45.012 13.779 3.05865 0.251448 1.21354 3.05945 0.173723 1.22708 3.06293 -0.0218716 1.23912 3.06083 0.174084 1.22703 -1.31115 15.0362 0.400785 -0.864973 26.7755 2.1851 -0.0 0.0 -0.0 -4.27206 18.6343 -4.28426 -14.7454 -60.9393 67.8798 0.565057 -15.6378 0.0775935 12.692 0.271472 -1.59526 -0.787379 9.68357 -1.04003 -0.0 0.0 -0.0 11.5279 12.5887 -23.189 -12.0519 21.1226 -59.2942 0.937726 24.9155 -0.207168 24.2916 -0.207244 3.07296 1.82451 -11.443 -16.5634 0.0 0.0 0.0 24.6055 -7.06521 -0.281951 -33.735 -0.117018 5.10184 42.4343 25.7452 -5.42183 -34.5266 0.0 0.0 -0.0 0.0 -0.0 22.5165 15.9163 2.10903 -14.1206 -0.319336 -2.13798 37.1329 -26.3996 4.92811 -16.4969 0.0 0.0 0.0 0.0 0.0 
3533.57 731.213 -667.375 -16.6991 44.9117 12.3691 2.72845 -0.090838 1.13587 2.72915 -0.162928 1.12779 2.72573 -0.345121 1.08599 2.72413 -0.16929 1.12686 -1.12418 14.868 -0.327972 -0.642715 27.0165 1.34722 -0.0 0.0 -0.0 -4.10581 21.4598 -3.38364 -12.1105 -59.7895 68.7026 0.502148 -13.969 0.0615184 12.5365 0.270298 -1.57543 -1.12127 10.6878 -2.73466 -0.0 0.0 -0.0 11.2547 12.1313 -22.5825 -13.518 20.7339 -59.3238 0.930295 24.7418 -0.204048 24.5971 -0.201514 3.11157 1.76842 -12.8969 -16.6886 0.0 0.0 0.0 22.9354 -7.12754 1.34334 -36.1818 -0.241892 5.45636 42.3228 26.4887 -5.43899 -33.1951 0.0 0.0 -0.0 0.0 -0.0 25.8496 18.6127 1.6451 -26.0107 -0.176078 -3.95356 38.1566 -28.5931 5.1116 -15.155 0.0 0.0 0.0 0.0 0.0 
3526.1 727.439 -665.492 -16.7413 44.725 12.659 2.65797 -0.0639438 1.03023 2.65855 -0.129367 1.02407 2.65608 -0.296245 0.988788 2.65474 -0.136375 1.02316 -0.963457 15.0807 -0.4761 -0.447456 27.491 1.1736 -0.0 0.0 -0.0 -4.24367 19.7175 -3.98965 -13.4557 -61.235 67.3098 0.618434 -17.0328 0.0926072 12.3373 0.268715 -1.55005 -0.822207 9.55643 -1.31879 -0.0 0.0 -0.0 11.14 11.8057 -22.3307 -14.1198 20.6501 -58.8132 0.914048 24.3603 -0.197297 24.9452 -0.194737 3.15551 1.92542 -14.0785 -18.1205 0.0 0.0 0.0 23.0485 -7.63368 1.67368 -36.962 -0.284892 5.56828 42.4487 25.107 -5.40051 -32.2163 0.0 0.0 -0.0 0.0 -0.0 27.8376 15.3915 2.30611 -28.4323 -0.100913 -4.31757 38.5287 -26.0535 5.05844 -16.4737 0.0 0.0 0.0 0.0 0.0 
3514.83 729.969 -663.461 -16.2618 46.2308 12.5694 2.58903 -0.176048 0.985847 2.58954 -0.23842 0.972649 2.58534 -0.396488 0.919617 2.58424 -0.246283 0.970688 -0.601909 15.6113 -1.7428 0.0627604 29.3955 -0.234943 -0.0 0.0 -0.0 -3.14871 19.7012 -2.35933 -13.7501 -61.0597 64.9769 0.55483 -15.3682 0.07486 12.3564 0.268871 -1.55248 -1.1272 10.1202 -3.02612 -0.0 0.0 -0.0 10.9236 11.3343 -21.8546 -15.8898 19.8077 -58.7839 0.888749 23.7617 -0.186982 24.4131 -0.204991 3.08831 1.69159 -16.844 -17.4852 0.0 0.0 0.0 21.9528 -7.33759 2.64537 -36.4359 -0.255731 5.49288 42.7006 26.666 -5.4805 -30.2683 0.0 0.0 -0.0 0.0 -0.0 29.9403 14.7306 1.907 -34.9689 0.178095 -5.28128 39.1309 -28.2208 5.19665 -15.8567 0.0 0.0 0.0 0.0 0.0 
3501.33 723.577 -665.792 -15.9699 45.7538 12.3603 2.62524 -0.291796 0.958288 2.62568 -0.35218 0.93778 2.61976 -0.502376 0.866654 2.61889 -0.359206 0.935112 -1.00101 15.4343 -0.858276 -0.440618 28.4399 0.803918 -0.0 0.0 -0.0 -3.89474 19.6283 -3.48765 -11.7444 -61.4126 66.3719 0.604472 -16.6698 0.0885599 12.1136 0.266833 -1.52153 -0.876058 9.35215 -1.75391 -0.0 0.0 -0.0 10.5679 10.7816 -21.0725 -17.3443 19.3348 -58.6543 0.871491 23.3502 -0.180085 25.2607 -0.188361 3.19531 1.93664 -15.6761 -18.7095 0.0 0.0 0.0 22.3914 -6.94912 3.21882 -39.8398 -0.456605 5.97585 42.9209 26.0011 -5.47551 -31.3187 0.0 0.0 -0.0 0.0 -0.0 31.3376 14.3597 0.364172 -36.6973 0.270131 -5.53037 38.9811 -26.8335 5.13046 -16.4138 0.0 0.0 0.0 0.0 0.0 
3489.76 724.125 -668.067 -15.7108 47.5276 12.3044 2.72905 -0.346471 0.801044 2.72932 -0.39674 0.777376 2.72381 -0.518523 0.702036 2.72335 -0.401145 0.775112 -1.12242 15.7907 -1.6946 -0.493734 29.7667 -0.0362823 -0.0 0.0 -0.0 -2.4539 21.563 -0.990215 -9.72712 -57.6273 65.2138 0.514997 -14.3119 0.0646574 11.3671 0.259746 -1.42645 -1.71294 10.0211 -6.83585 -0.0 0.0 -0.0 9.97846 10.4681 -19.7796 -18.5685 18.5624 -59.6096 0.851074 22.86 -0.172073 24.3493 -0.206177 3.08026 1.55205 -16.946 -16.62 0.0 0.0 0.0 19.9976 -6.97502 3.89833 -37.7777 -0.331474 5.68465 42.5748 27.125 -5.48673 -26.7642 0.0 0.0 -0.0 0.0 -0.0 32.348 15.341 -0.0259501 -40.7181 0.513081 -6.0985 34.4055 -29.1572 4.73034 -13.7035 0.0 0.0 0.0 0.0 0.0 
3478.15 724.604 -665.108 -15.5526 48.0958 12.3598 2.60577 -0.213506 0.634358 2.60596 -0.253439 0.619487 2.60315 -0.352517 0.568971 2.60279 -0.258236 0.617502 -4.22019 14.9876 -0.312392 -3.97479 27.72 2.08589 -0.0 0.0 -0.0 -2.05964 19.4873 -0.779822 -10.9158 -61.1182 63.4906 0.575999 -15.9254 0.0805696 10.3479 0.248069 -1.29678 -1.7183 9.18711 -7.26391 -0.0 0.0 -0.0 9.87754 8.70695 -19.5789 -19.416 18.0012 -58.8162 0.739646 20.1228 -0.131239 26.2776 -0.166326 3.32334 1.99295 -17.7239 -19.7124 0.0 0.0 0.0 19.8868 -6.98515 4.38873 -39.0582 -0.407943 5.866 42.5509 25.7117 -5.43127 -30.061 0.0 0.0 -0.0 0.0 -0.0 33.3954 16.6524 -0.177484 -41.141 0.540949 -6.15726 35.5967 -25.9419 4.75304 -17.6848 0.0 0.0 0.0 0.0 0.0 
3469.05 730.576 -664.667 -15.3705 48.9387 11.776 2.85755 -0.150365 0.656317 2.85777 -0.191823 0.64542 2.85552 -0.293377 0.606048 2.85506 -0.193983 0.644774 -5.47373 14.7154 1.71221 -5.3633 25.9064 4.3914 -0.0 0.0 -0.0 -1.19365 19.4716 0.503488 -9.24325 -58.7949 63.6492 0.524979 -14.5776 0.0671474 9.17335 0.231755 -1.14764 -2.24808 8.80354 -10.9085 -0.0 0.0 -0.0 9.82543 8.06958 -19.4688 -19.7835 15.7844 -59.1536 0.639459 17.5767 -0.0988615 26.4205 -0.163047 3.3413 1.50292 -21.6251 -17.7672 0.0 0.0 0.0 17.1632 -7.28746 4.79892 -33.1883 -0.0911984 5.02193 41.9084 26.9247 -5.41698 -29.3711 0.0 0.0 -0.0 0.0 -0.0 36.7037 13.4932 -0.443822 -41.6505 0.575094 -6.22777 29.4915 -28.7344 4.14854 -16.4531 0.0 0.0 0.0 0.0 0.0 
3463.28 728.587 -667.897 -14.7373 50.1091 11.761 2.55942 -0.135036 0.561575 2.55958 -0.170497 0.551844 2.55788 -0.259922 0.515793 2.55756 -0.175201 0.550369 -7.26445 14.5733 1.02786 -7.28832 26.4143 4.08317 -0.0 0.0 -0.0 -0.566876 19.2196 1.40052 -8.57262 -60.8474 61.5977 0.544288 -15.0897 0.0720909 7.36063 0.200586 -0.918195 -2.74625 8.03433 -14.6055 -0.0 0.0 -0.0 10.0326 5.70228 -19.9023 -21.3553 17.0963 -57.8379 0.579937 16.0287 -0.0816533 26.9747 -0.149908 3.41087 1.6963 -20.2384 -18.5638 0.0 0.0 0.0 15.5238 -6.577 3.81305 -31.8973 -0.0332704 4.83232 40.1599 26.1432 -5.22197 -29.9013 0.0 0.0 -0.0 0.0 -0.0 37.7156 17.5723 -1.64794 -40.833 0.520611 -6.11449 31.4651 -25.3604 4.28395 -19.4301 0.0 0.0 0.0 0.0 0.0 
3452.43 727.298 -669.81 -14.4448 49.6724 11.7473 2.59135 -0.15382 0.460701 2.59145 -0.182824 0.44998 2.58998 -0.254899 0.413441 2.58979 -0.186405 0.448508 -8.33769 14.5716 1.47789 -8.44313 26.247 4.77782 -0.0 0.0 -0.0 -0.194481 19.3085 1.96543 -7.89885 -61.2576 60.3525 0.602336 -16.6142 0.0879482 7.30178 0.199453 -0.910763 -2.89685 8.67397 -15.2819 -0.0 0.0 -0.0 9.45171 6.45498 -18.6654 -22.198 17.2014 -58.6238 0.574189 15.8778 -0.0800736 27.4883 -0.13713 3.47524 1.99295 -20.7901 -20.608 0.0 0.0 0.0 15.1075 -6.2896 4.18782 -33.1361 -0.0887756 5.0143 41.053 26.2223 -5.31032 -29.1861 0.0 0.0 -0.0 0.0 -0.0 39.152 18.1571 -2.08324 -38.4478 0.37098 -5.77975 27.9443 -24.7214 3.85989 -20.6411 0.0 0.0 0.0 0.0 0.0 
3445.29 728.576 -672.979 -15.4417 50.8311 13.2998 2.75172 -0.207297 0.266268 2.75173 -0.22382 0.252537 2.75073 -0.261995 0.212671 2.75074 -0.22512 0.251379 -9.10842 14.9771 2.89909 -9.25844 26.1475 6.44123 -0.0 0.0 -0.0 0.57222 18.2255 3.00003 -9.27993 -59.9695 57.5258 0.767929 -20.8272 0.141132 5.90027 0.170204 -0.734125 -3.18882 8.82936 -17.1675 -0.0 0.0 -0.0 9.2056 5.54825 -18.1386 -22.946 16.3988 -58.8841 0.533612 14.8068 -0.069337 27.8742 -0.12715 3.52353 2.24931 -22.6065 -22.7349 0.0 0.0 0.0 11.272 -4.73569 3.27972 -26.786 0.153689 4.07044 37.0652 25.4277 -4.89012 -30.7853 0.0 0.0 -0.0 0.0 -0.0 40.2067 19.6489 -2.82005 -29.2069 -0.0736253 -4.43332 19.1793 -23.5914 2.73952 -22.2218 0.0 0.0 0.0 0.0 0.0 
